<?xml version="1.0" standalone="no"?>
<!DOCTYPE svg PUBLIC "-//W3C//DTD SVG 20010904//EN"
 "http://www.w3.org/TR/2001/REC-SVG-20010904/DTD/svg10.dtd">
<svg version="1.0" xmlns="http://www.w3.org/2000/svg"
 width="500.000000pt" height="500.000000pt" viewBox="0 0 500.000000 500.000000"
 preserveAspectRatio="xMidYMid meet">
<metadata>
Created by potrace 1.14, written by Peter Selinger 2001-2017
</metadata>
<g transform="translate(0.000000,500.000000) scale(0.100000,-0.100000)"
fill="#000000" stroke="none">
<path d="M4210 3593 c-404 -102 -740 -190 -747 -197 -14 -13 -195 -517 -188
-524 3 -3 51 7 107 22 57 14 112 28 123 30 64 14 1247 315 1251 319 6 6 194
530 191 533 -1 1 -333 -82 -737 -183z"/>
<path d="M2764 3480 c-11 -27 -85 -233 -109 -300 l-22 -65 253 0 c139 0 254 2
257 5 3 3 18 43 35 90 16 47 46 129 65 183 20 53 33 98 29 98 -4 1 -118 2
-254 3 -213 1 -248 -1 -254 -14z"/>
<path d="M886 3352 c-3 -5 -28 -73 -56 -153 -29 -79 -55 -153 -60 -164 -15
-38 -38 -100 -58 -155 -11 -30 -40 -111 -65 -180 -25 -69 -114 -314 -197 -545
-84 -231 -155 -429 -160 -440 -4 -11 -13 -33 -19 -48 -6 -15 -11 -30 -11 -33
0 -2 115 -3 256 -2 l256 3 33 90 c45 122 174 478 196 540 48 139 129 356 137
372 9 17 29 18 274 17 315 -2 284 0 307 -23 23 -23 20 -58 -14 -146 -22 -55
-101 -273 -195 -535 -21 -58 -54 -149 -74 -204 -20 -54 -36 -102 -36 -107 0
-6 108 -8 252 -7 l253 3 53 145 c29 80 61 170 71 200 11 30 69 192 130 359 61
167 119 329 128 360 39 133 2 228 -105 265 -34 12 -112 15 -419 16 l-378 0
-75 -45 c-41 -24 -76 -42 -78 -40 -3 2 97 281 157 438 l11 27 -255 0 c-139 0
-256 -4 -259 -8z"/>
<path d="M2552 2898 c-17 -46 -79 -216 -137 -378 -58 -162 -112 -311 -120
-330 -17 -42 -99 -269 -130 -360 -13 -36 -34 -95 -48 -132 l-26 -68 257 0 257
0 43 123 c24 67 59 163 77 212 118 322 171 468 191 525 12 36 56 159 98 274
42 115 76 210 76 212 0 2 -114 4 -254 4 l-253 0 -31 -82z"/>
<path d="M3186 2535 c-8 -22 -21 -58 -30 -80 -8 -22 -30 -83 -49 -136 l-35
-96 471 0 471 0 22 -26 c29 -34 26 -57 -32 -215 -25 -70 -72 -196 -103 -281
-57 -158 -84 -200 -140 -223 -17 -8 -185 -12 -493 -12 -256 -1 -469 -3 -471
-6 -3 -3 -30 -75 -60 -160 -30 -85 -58 -163 -62 -173 -7 -17 24 -17 686 -15
l694 3 67 32 c74 35 157 106 196 168 34 54 322 851 322 891 0 51 -16 82 -68
131 -26 25 -85 83 -132 128 -47 45 -96 88 -110 96 -20 10 -135 13 -577 14
l-553 0 -14 -40z"/>
<path d="M1280 1466 c0 -2 -27 -77 -60 -167 -33 -90 -60 -167 -60 -171 0 -5
22 -8 49 -8 l48 0 39 102 39 102 47 2 c75 2 76 -2 36 -110 l-36 -96 52 0 52 0
36 98 c66 176 66 176 -75 170 l-94 -3 14 32 c20 49 17 53 -37 53 -27 0 -50 -2
-50 -4z"/>
<path d="M325 1420 c-9 -17 -24 -30 -35 -30 -23 0 -31 -30 -13 -51 11 -13 9
-27 -11 -86 l-24 -71 32 -31 c28 -27 39 -31 88 -31 54 0 56 1 67 31 6 18 11
33 11 34 0 2 -16 2 -36 1 -19 -1 -40 1 -45 5 -6 3 0 31 13 70 21 59 26 64 53
65 17 1 39 2 50 3 13 1 25 12 32 31 l11 30 -50 0 c-36 0 -49 3 -45 13 20 49
22 47 -32 47 -46 0 -52 -3 -66 -30z"/>
<path d="M2422 1421 c-7 -19 -18 -31 -34 -33 -27 -4 -38 -45 -15 -54 12 -4 10
-17 -12 -80 l-26 -75 33 -30 c27 -25 41 -29 87 -29 43 0 56 4 65 19 20 38 13
49 -30 46 -48 -4 -49 3 -19 85 l21 58 44 -3 c46 -2 57 5 68 43 7 21 4 22 -39
22 -47 0 -47 0 -40 30 l7 30 -50 0 c-46 0 -51 -2 -60 -29z"/>
<path d="M586 1375 c-40 -21 -51 -39 -80 -122 l-24 -71 32 -31 c32 -31 32 -31
142 -31 l111 0 10 33 10 33 -89 0 c-50 -1 -94 1 -99 4 -4 3 -5 19 0 35 7 29 8
29 19 9 10 -19 19 -21 70 -20 100 4 162 54 162 132 0 13 -9 28 -19 34 -31 16
-211 13 -245 -5z m160 -58 c18 -17 -21 -37 -72 -37 -58 0 -63 4 -38 31 15 17
95 22 110 6z"/>
<path d="M923 1373 c-17 -16 -31 -40 -39 -68 -1 -5 -12 -35 -23 -65 l-20 -55
32 -32 31 -33 103 0 c91 0 103 2 113 19 23 43 15 48 -71 47 -44 -1 -85 1 -89
4 -9 6 22 104 39 124 7 8 40 12 97 12 84 -1 86 0 100 26 8 15 14 29 14 33 0 3
-60 5 -133 5 -113 0 -137 -3 -154 -17z"/>
<path d="M1586 1261 c-25 -71 -46 -131 -46 -135 0 -3 22 -6 49 -6 44 0 50 3
59 28 5 15 23 61 39 102 l29 75 58 1 c31 0 59 -4 62 -8 3 -5 -8 -45 -25 -89
-41 -108 -41 -109 18 -109 42 0 49 3 54 23 3 12 19 58 36 102 55 139 52 145
-61 145 -58 0 -86 -5 -105 -17 -26 -17 -27 -17 -20 0 6 15 0 17 -47 17 l-54 0
-46 -129z"/>
<path d="M2055 1380 c-33 -13 -61 -52 -83 -116 -28 -78 -28 -85 6 -117 27 -26
32 -27 139 -27 l111 0 11 31 c6 18 11 33 11 34 0 1 -43 2 -95 1 -52 0 -97 3
-100 6 -4 4 -1 16 6 29 10 20 13 21 23 7 17 -23 111 -17 164 10 60 32 86 109
46 139 -20 15 -205 18 -239 3z m152 -67 c10 -25 -12 -34 -71 -31 -55 3 -56 4
-42 24 18 25 104 31 113 7z"/>
</g>
</svg>
